<?xml version="1.0" encoding="utf-8"?>
<!DOCTYPE svg PUBLIC "-//W3C//DTD SVG 1.1//EN" "http://www.w3.org/Graphics/SVG/1.1/DTD/svg11.dtd">
<svg version="1.1" id="图形" xmlns="http://www.w3.org/2000/svg" xmlns:xlink="http://www.w3.org/1999/xlink" x="0px" y="0px" width="1024px" height="1024px" viewBox="0 0 1024 1024" enable-background="new 0 0 1024 1024" xml:space="preserve">
  <path fill="#219AB3" d="M789.243 679.173c-33.158 48.87-99.138 72.88-155.344 86.231-53.682 12.712-110.963 12.115-165.13 0.944-52.618-10.865-109.297-31.499-147.188-73.064-35.973-39.397-44.296-96.252-16.816-142.394 9.572-16.066 22.517-29.892 36.693-42.294 21.588-18.92 46.83-32.965 72.786-43.351 12.693-5.085 25.842-9.751 39.156-13.589-10.111-16.957-16.156-36.412-19.532-55.903-2.545-14.653-3.079-29.568-3.332-44.478-0.698-41.185 7.309-86.049 37.562-115.984 30.89-30.597 81.887-37.926 121.887-19.791 36.468 16.564 63.177 51.07 73.123 89.177 6.123 23.517 6.329 48.087 2.471 71.888-5.742 35.389-25.351 68.751-54.984 86.805 45.713 14.932 91.071 36.217 121.522 73.512 16.029 19.61 26.782 44.038 27.902 69.248 1.12 25.21-6.73 49.997-20.849 70.698-21.61 31.56-56.59 52.532-93.204 61.345-19.348 4.657-39.379 6.748-59.285 8.269 28.44 13.663 62.215 17.843 93.18 12.527 23.636-4.056 42.959-17.568 59.136-34.481 16.121-16.853 29.981-36.591 35.412-59.59 4.754-20.064 4.536-41.031-0.449-61.004-9.075-36.468-35.794-67.815-69.519-84.252 38.31-12.352 80.753-0.696 108.424 26.414 33.5 32.746 41.963 82.231 31.5 125.431-5.25 21.628-15.287 42.417-29.672 59.387z M509.006 439.376c-9.784-60.729 41.817-123.574 103.354-127.146 33.768-1.962 67.632 13.037 85.317 42.228 19.165 31.625 16.731 71.942 5.507 105.747-6.142 18.431-16.232 35.485-30.115 48.598-14.415 13.625-32.892 22.693-52.224 25.857-63.46 10.406-115.407-49.141-111.839-95.284z M646.429 620.042c-20.175-23.542-54.763-30.717-83.092-23.586-31.26 7.864-58.625 28.645-81.715 51.070-20.646 20.045-39.896 42.23-53.157 68.577-11.443 22.788-10.991 50.229 2.074 71.958 13.984 23.215 39.082 38.233 65.525 43.427 31.114 6.109 63.482 2.923 94.681 0.184 30.079-2.644 62.567-5.233 86.796-23.891 17.882-13.765 28.316-35.394 28.156-58.035 0.061-29.466-15.718-57.693-36.835-78.874-7.448-7.45-14.896-14.898-22.434-22.26z" transform="translate(0, 812) scale(1, -1)"/>
</svg>